PathFileType	4	(X/Y/Z)	C:\Users\ebm\Documents\Erivelton\Erivelton\propulsion3.trc
DataRate	CameraRate	NumFrames	NumMarkers	Units	OrigDataRate	OrigDataStartFrame	OrigNumFrames
150.00	150.00	       19	28	mm	150.00	873	       997
Frame#	Time	IJ			PX			C7			T8			RAC			RAS			RPS			RAI			RPI			RLE			RME			RRS			RUS			R3M			R5M			LAC			LAS			LPS			LAI			LPI			LLE			LME			LRS			LUS			L3M			L5M			RW			LW			V_mid_elbow_r			V_mid_elbow_l			V_mid_wrist_r			V_mid_wrist_l			V_mid_trunk_low			V_mid_trunk_upp			
		X1	Y1	Z1	X2	Y2	Z2	X3	Y3	Z3	X4	Y4	Z4	X5	Y5	Z5	X6	Y6	Z6	X7	Y7	Z7	X8	Y8	Z8	X9	Y9	Z9	X10	Y10	Z10	X11	Y11	Z11	X12	Y12	Z12	X13	Y13	Z13	X14	Y14	Z14	X15	Y15	Z15	X16	Y16	Z16	X17	Y17	Z17	X18	Y18	Z18	X19	Y19	Z19	X20	Y20	Z20	X21	Y21	Z21	X22	Y22	Z22	X23	Y23	Z23	X24	Y24	Z24	X25	Y25	Z25	X26	Y26	Z26	X27	Y27	Z27	X28	Y28	Z28	

873	5.813	4294.27539	1016.78625	-33.49128	4293.81299	840.85815	-32.93932	4176.83301	1127.63513	-41.86922	4076.56226	942.92664	-46.60956	4197.18115	1076.24878	147.75473	4128.83301	931.48932	215.97542	4098.75732	975.20868	224.95589	4065.79419	884.24628	235.06865	4041.11597	926.96863	245.42860	3968.75708	877.70526	266.75208	3944.68652	860.76917	186.61716				4029.41675	621.71387	276.52008	4101.73682	561.99097	279.77362	4064.15869	551.56451	285.71765	4190.99219	1072.96948	-227.62569	4118.47021	949.93805	-314.79272	4080.80225	977.75085	-302.57877	4072.46631	891.35712	-348.22495	4028.60864	922.25391	-337.33841	4006.72070	852.17700	-371.29245										4168.60303	569.66760	-366.50055				4188.22168	300.39087	272.86295	4115.80957	619.80353	-303.21570	
874	5.820	4303.08398	1016.85071	-33.48181	4302.50195	840.85724	-32.70253	4185.46826	1127.69958	-41.84789	4085.37256	943.00574	-46.40161	4206.07031	1076.07410	147.96877	4138.77588	930.36560	216.01849	4108.28027	973.74286	225.19162	4076.26123	882.45587	235.25403	4051.26855	924.86371	245.81793	3979.31274	874.93939	267.16772	3955.47681	857.75909	187.09724				4042.62793	619.52679	277.00763	4115.58789	561.04688	280.59717	4078.19189	549.79022	286.50586	4199.77783	1072.95410	-227.89673	4128.31787	948.82043	-315.26816	4090.24365	976.22833	-303.30225	4083.08984	889.82996	-349.01172	4038.89380	920.19800	-338.35062	4018.21460	850.12769	-372.43204										4186.06396	570.20062	-366.82950				4196.14453	300.54767	273.14709	4129.66650	621.47272	-303.35898	
875	5.827	4311.75635	1016.81488	-33.33810	4311.32227	841.04926	-32.42717	4194.10156	1127.74780	-41.78009	4094.01978	943.02472	-46.14584	4215.02539	1075.92053	148.12315	4148.72461	929.20294	216.05444	4117.79688	972.17389	225.47609	4086.84546	880.57983	235.56735	4061.38550	922.75006	246.22784	3990.14355	872.06622	267.71259	3966.07300	854.70471	187.71063				4056.13257	617.37341	277.57663	4130.15723	560.48090	281.26880	4093.13086	548.17969	287.34061	4208.59717	1073.12061	-228.13553	4138.24805	947.94580	-315.91406	4099.76221	974.88263	-303.94070	4093.92896	888.48553	-349.90967	4049.24292	918.35138	-339.41763	4029.86768	848.12549	-373.78055										4202.56885	570.24243	-367.14584				4204.19385	300.67911	273.51144	4144.80469	621.14172	-303.90634	
876	5.833				4319.85645	841.23560	-32.28968	4202.82275	1127.71167	-41.75697	4102.69727	943.08539	-45.90461	4224.00098	1075.94531	148.39626	4158.72754	928.02380	216.22220	4127.36621	970.69263	225.88628	4097.60352	878.69019	235.96065	4071.76636	920.54297	246.84294	4001.01831	869.11035	268.44943	3977.24048	851.45886	188.44180				4070.22778	615.08026	278.25577	4145.67432	560.17108	281.79367	4109.01855	546.76776	288.12000	4217.29932	1073.15344	-228.23660	4148.25391	947.22076	-316.37225	4109.53125	973.58496	-304.53494	4104.95898	887.37628	-351.02304	4059.99707	916.52570	-340.52893	4041.72192	846.07104	-375.02448																4211.93896	300.70764	273.68134				
877	5.840	4329.40186	1017.15662	-33.34723				4211.30615	1127.86536	-41.70939	4111.38965	943.22339	-45.60292	4232.93945	1075.86365	148.52859	4168.88867	926.94373	216.46159	4137.08691	969.22101	226.27310	4108.43945	876.80762	236.52304	4082.16040	918.32635	247.52560	4012.08813	866.06537	269.29523	3988.31665	848.01709	189.21748				4084.61084	612.98615	278.87897	4161.80371	560.22565	282.35526	4125.56982	546.01434	289.24915	4226.14160	1073.36084	-228.37325	4158.53809	946.58600	-317.02658	4119.17773	972.21808	-305.14709				4070.73413	914.63257	-341.67654	4055.05029	842.56812	-374.03668																4219.29639	301.08536	273.39932				
878	5.847	4338.18115	1017.29138	-33.26228				4220.03760	1127.96936	-41.68336	4120.26855	943.30457	-45.31707	4241.95068	1075.77100	148.79387	4179.09033	925.83600	216.75058	4146.80371	967.66901	226.79211	4119.43945	874.93481	237.21400	4092.69458	916.13959	248.32089	4023.44385	862.96216	270.20142	3999.64575	844.59894	190.21045				4099.53613	611.01440	279.64832	4178.39893	560.69043	283.15582	4142.43066	545.49188	290.56784	4235.12598	1073.47595	-228.40485	4168.85547	946.06097	-317.62363	4129.13574	970.99554	-305.82214				4081.67310	912.76337	-342.94742	4066.86987	840.60388	-375.35938																4227.54004	301.05392	273.62354				
879	5.853	4346.92139	1017.53021	-33.18425				4228.68994	1127.97583	-41.59661	4128.86719	943.36255	-44.92958	4250.93750	1075.75427	149.08134	4189.36865	924.77502	217.10258	4156.56982	966.19012	227.38980	4130.55029	873.18945	238.04172	4103.23828	913.95782	249.15636	4034.82520	859.82184	271.28101	4010.63916	841.18683	191.42439				4114.95752	609.45148	280.36505	4195.27539	561.52466	283.88440	4159.53027	545.69189	292.20239	4243.93408	1073.68677	-228.40761	4179.41064	945.34528	-318.21777	4139.14795	969.58386	-306.62268				4092.92090	910.84662	-344.32437																			4235.79688	300.89807	273.77625				
880	5.860							4237.25586	1127.99658	-41.49468	4137.70264	943.41858	-44.63471	4259.86328	1075.59436	149.29408	4199.74658	923.75403	217.56836	4166.46436	964.74994	227.95012	4141.69580	871.34729	238.71552	4113.82715	911.71906	250.00435	4046.28369	856.76923	272.35068	4021.90869	837.75446	192.64455				4130.89746	608.13385	281.16983	4212.06641	562.16980	284.51959	4176.66455	546.20465	293.85831	4253.08057	1073.81909	-228.50276	4190.11279	944.61188	-318.93521	4149.32617	968.04694	-307.47574				4104.22998	908.75189	-345.70236																			4244.16260	300.76318	274.04269				
881	5.867							4245.89844	1127.99121	-41.28746	4146.38135	943.32343	-44.42522	4268.86719	1075.35095	149.69334	4210.21484	922.75232	218.01039	4176.50342	963.39471	228.63319	4152.89795	869.58929	239.52266	4124.71338	909.64764	250.99153	4057.96973	853.78479	273.46539	4033.41284	834.43921	193.88797				4147.97412	607.16461	281.52286	4228.78809	562.72961	285.26492	4193.73828	546.78180	295.46509	4262.01807	1073.71448	-228.43768	4200.86035	943.50232	-319.57974	4159.71924	966.50269	-308.37396				4115.70459	906.62573	-347.00308																			4252.64404	300.73404	274.33713				
882	5.873							4254.60059	1127.83655	-41.10221	4154.96875	943.31104	-44.27131	4277.85596	1075.04517	150.14282	4220.73242	921.71399	218.47649	4186.62646	961.92682	229.23154	4164.29004	867.94281	240.38771	4135.52930	907.70496	251.91736	4069.79321	850.92218	274.65915	4044.77441	831.24030	195.27406				4164.37158	606.45782	282.34482	4245.43848	562.92188	285.98587	4211.38770	546.91571	296.00345	4270.94727	1073.60999	-228.29506	4211.83838	942.40332	-320.32800	4170.18115	964.68695	-309.30798				4127.35791	904.28149	-348.41370																			4261.32764	300.61987	274.63708				
883	5.880							4263.09424	1127.68567	-40.84651	4163.69189	943.19971	-44.08536	4286.91455	1074.63831	150.46690	4231.36182	920.63696	218.90353	4196.96436	960.53912	229.92563	4175.63232	866.25739	241.20480	4146.56396	905.58923	252.87759	4081.57861	848.17999	275.83966	4056.36719	828.15735	196.51598				4180.56738	605.75916	283.20258	4261.95557	562.63531	286.71494	4228.24902	546.57513	297.13443	4280.05859	1073.35449	-228.43236	4222.88037	940.98999	-320.98987	4180.83398	962.77795	-310.48566				4139.08154	901.87866	-349.77710																			4269.89600	300.48514	274.95615				
884	5.887							4271.54590	1127.47876	-40.49766	4172.10400	942.86792	-43.96968	4296.11768	1074.28406	150.96480	4242.07178	919.49518	219.30708	4207.35059	959.00885	230.69388	4187.04102	864.52814	241.97235	4157.58643	903.66632	253.89635	4093.45288	845.69397	277.09763	4067.91333	825.19672	197.77080				4196.57520	605.09662	284.17319	4278.62354	562.38483	287.71664	4243.98291	545.90930	298.64844	4288.99609	1072.97668	-228.31912	4234.09180	939.57184	-321.64902	4191.65869	960.68207	-311.72644				4151.05908	899.32214	-350.97699																			4278.48486	300.28290	275.22183				
885	5.893							4280.16895	1127.13489	-40.30987	4180.94629	942.54919	-43.93658	4305.25928	1073.80029	151.37714	4252.76904	918.30292	219.71628	4217.84570	957.58398	231.44478	4198.44092	862.82965	242.65831	4168.73877	901.65906	254.97868	4105.14844	843.22174	278.38284	4079.47241	822.26410	199.27808				4212.44189	604.59326	285.07199	4294.59424	561.07996	289.01526	4260.35254	545.18237	299.60519	4298.20605	1072.32886	-228.60838	4245.46094	937.91010	-322.04401	4202.66748	958.81781	-312.76111				4162.92236	896.41754	-352.25775																									
886	5.900							4288.54395	1126.74243	-40.07078	4189.27930	942.37000	-43.92738	4314.69043	1073.33105	151.76430	4263.54443	917.08942	220.11279	4228.31299	956.08075	232.23572	4209.77734	861.14343	243.46646	4179.87207	899.72931	256.07925	4117.00977	840.83466	279.70178	4091.13477	819.45276	200.59883				4228.39404	604.16284	285.95676	4310.76807	560.27686	289.86630	4276.43066	544.56006	300.68048	4307.41553	1071.71155	-228.84528	4256.97119	936.16162	-322.57278	4213.73584	956.48242	-314.05295				4175.13330	893.43829	-353.46033																									
887	5.907							4297.22021	1126.28333	-39.93456	4197.97754	942.12823	-44.03846	4323.95313	1072.79443	152.25813	4274.18359	915.78741	220.48080	4238.80957	954.46112	233.07204	4221.15137	859.41504	244.14911	4191.04004	897.73840	257.15103	4128.81738	838.34631	281.13702	4102.65186	816.64276	202.22972				4244.27881	603.88519	286.76505	4326.91797	559.41467	290.95428	4292.23779	543.89154	301.53049	4316.71826	1070.93848	-229.25272	4268.44775	934.20422	-322.98172	4224.75781	953.98279	-315.25259				4187.22461	890.04120	-354.81793																									
888	5.913							4305.78271	1125.87952	-39.81520	4206.38916	941.82819	-44.06948	4333.30615	1072.14307	152.57979	4284.94580	914.52893	220.85271	4249.36475	952.87909	233.96992	4232.52051	857.61676	244.98265	4202.20752	895.68671	258.32950	4140.56299	835.87274	282.58990	4114.19434	813.77893	203.90250				4260.29443	603.78473	287.60638	4342.94580	558.33044	292.01974	4308.05566	543.34241	302.36197	4325.81641	1070.13525	-229.59569	4280.42041	932.28436	-323.05188	4235.98730	951.28961	-316.39841				4199.76709	886.96332	-355.87323																									
889	5.920							4314.26855	1125.49573	-39.69783	4215.03809	941.52533	-44.12088	4342.60986	1071.57556	153.04234	4295.64453	913.15991	221.22742	4259.91211	951.20917	234.86128	4243.94727	855.84930	245.74712	4213.44775	893.58789	259.54861	4152.47070	833.36243	284.16525	4125.87012	810.91138	205.66263				4276.25391	603.59912	288.48334	4358.76611	557.14868	293.02679	4323.68506	542.49377	303.08444	4335.17139	1069.11694	-229.98300	4291.11475	928.53711	-323.44159	4246.71240	947.41534	-318.16992				4212.29346	883.68457	-356.92346																									
890	5.927							4322.86377	1124.99512	-39.74909	4223.37354	941.24286	-44.27406	4351.83447	1070.86169	153.28972	4306.31494	911.70300	221.59390	4270.45459	949.52448	235.86404	4255.40967	853.98505	246.61310	4224.81104	891.54468	260.87576	4164.39453	830.68622	285.74768	4137.77002	807.94843	207.49422				4292.20557	603.39819	289.49533				4339.21143	541.45685	303.63181	4344.64160	1068.22449	-230.25967	4302.78271	926.03912	-323.77042	4258.22803	944.72137	-319.06656				4224.82617	880.34216	-358.00299																									
891	5.933							4331.31885	1124.68372	-39.71976	4231.95703	940.93024	-44.31921	4361.10986	1070.29919	153.69913	4317.05518	910.30292	221.99423	4281.16211	947.75500	236.80939	4266.90820	852.06732	247.54201	4236.11279	889.36139	262.27792	4176.51416	828.02502	287.34607	4149.40869	804.99792	209.30457				4308.05518	603.23810	290.48596				4354.52588	540.34570	304.15768	4353.95557	1067.21997	-230.64561	4314.48828	923.51874	-324.00995	4269.78223	942.04858	-320.05933				4237.53955	877.09332	-359.12482																									
